<?xml version="1.0" encoding="utf-8"?>
<svg version="1.1" id="Layer_1" xmlns="http://www.w3.org/2000/svg" xmlns:xlink="http://www.w3.org/1999/xlink" x="0px" y="0px"
	 viewBox="172 -257 612 792" style="enable-background:new 172 -257 612 792;" xml:space="preserve">
<style type="text/css">
	.st0{fill:#FFFFFF;}
</style>
<path id="SWIRL" class="st0" d="M562.6-116.2c-2.9-142.4-192.4-195.5-265.3-62c3.2,2.3,7.7,5.5,10.9,7.8
	c-5.6,11.7-9.3,23.6-11.3,35.5c-1.4,7.8-2.2,15.8-2.2,24c0,73.9,60,133.8,134,133.8s134-59.9,134-133.8
	C562.7-112.6,562.6-114.4,562.6-116.2z M327.7-92.3c-1.8,14.5-0.7,19-0.7,20.7l-3.2,1.2c-1.2-2.4-4.3-10.8-5.7-22.1
	c-3.5-43.1,25.9-81.9,70.7-89.1c41.1-6,80.3,19.4,89.5,55.1l-3.2,1.2c-1-1.1-2.7-3.9-8.9-10.2C416.7-185.2,338.9-162.4,327.7-92.3z
	 M455.3-68.2c-6.6,9.5-17.6,15.7-30,15.7c-20.2,0-36.5-16.3-36.5-36.5c0-19.3,14.9-35,33.9-36.4l0,0c11.8-0.5,22.8,5.9,28,16.2
	c5.6,11.1,3.6,24.9-5.2,34.1C448.7-72.7,452-70.4,455.3-68.2z M531.5-66.7C512.1-22.9,472.3,0,429.9-0.5
	c-81.5-4-105.2-98-50.7-131.9l2.4,2.4c-0.9,1.2-4.1,3.8-9.2,13.7c-5.9,12.1-7.7,24.1-7,31.7c4.2,65.7,96.3,79.1,128,14.1
	c40.4-89.1-66.6-179.6-161.6-110.4l-2.2-2.2c25-39.1,73.8-56.7,120.4-45C521.2-210.3,559.5-136.1,531.5-66.7z"/>
</svg>
